<!-- Logo Metta oficial — system-source/assets/logos/logo_metta_colorido_escuro_h.svg -->
<svg width="0" height="0" style="position:absolute" aria-hidden="true">
  <symbol id="metta-logo" viewBox="0 0 445 123">
    <path fill="#FFBE18" d="M88.1018 0.368652C96.742 4.41246 104.502 10.1192 110.937 17.1616C117.372 24.204 122.357 32.4447 125.608 41.4136C128.858 50.3824 130.309 59.9043 129.88 69.4341C129.451 78.9639 127.147 88.3165 123.104 96.9565L108.791 90.2573C104.027 100.435 96.3536 108.974 86.7395 114.792C77.1217 120.611 65.993 123.449 54.7629 122.945C43.5329 122.441 32.704 118.618 23.6467 111.959C14.5891 105.301 7.70805 96.1051 3.87617 85.5366C0.0444096 74.9683 -0.566997 63.4996 2.11836 52.5835C4.80385 41.6677 10.6668 31.7929 18.9641 24.2085C21.7253 21.6846 24.7171 19.4538 27.8869 17.5356C34.2421 13.69 41.3203 11.1061 48.7346 9.97412C59.8475 8.27772 71.2151 9.91474 81.3977 14.6782L74.8195 28.7378C79.7542 31.0474 84.184 34.3102 87.8527 38.3384C91.5229 42.3682 94.3588 47.0854 96.1984 52.2163C98.0379 57.3474 98.8453 62.7929 98.5715 68.2368C98.3026 73.5808 96.9939 78.8195 94.7277 83.6646L108.761 90.229C111.919 83.4767 113.717 76.1681 114.053 68.7212C114.389 61.2696 113.254 53.8239 110.713 46.811C108.172 39.798 104.273 33.3538 99.2414 27.8472C94.2098 22.3407 88.1427 17.8791 81.3869 14.7173L88.1018 0.368652ZM74.7932 28.7749C67.4017 25.3191 59.1512 24.1316 51.0852 25.3628C45.7013 26.1847 40.5603 28.0605 35.9455 30.853C33.6441 32.2457 31.4718 33.8662 29.467 35.6987C23.4424 41.2058 19.1856 48.3763 17.2355 56.3022C15.2857 64.2286 15.7306 72.5562 18.5129 80.23C21.2953 87.9038 26.2906 94.5807 32.8674 99.4155C39.444 104.25 47.3069 107.027 55.4611 107.393C63.6152 107.759 71.6955 105.699 78.6789 101.473L78.6799 101.472C85.5781 97.2978 91.0991 91.1939 94.5666 83.9194L81.009 77.4575C78.8033 82.0872 75.2904 85.972 70.9006 88.6284C66.5968 91.2326 61.6382 92.5449 56.6164 92.4126L56.1311 92.394L56.1291 92.395C50.9421 92.1619 45.9405 90.3952 41.757 87.3198C37.5733 84.2442 34.3942 79.9973 32.6242 75.1157C30.8543 70.2342 30.5734 64.9363 31.8137 59.894C33.0542 54.852 35.7624 50.2899 39.5949 46.7866C43.4275 43.2836 48.2131 40.996 53.3459 40.2124C58.477 39.4292 63.725 40.1841 68.427 42.3823L74.7932 28.7749ZM61.9592 56.2231C59.9927 55.3033 57.7977 54.9864 55.6516 55.314C53.5055 55.6416 51.504 56.5984 49.9016 58.063C48.2993 59.5277 47.1663 61.4354 46.6477 63.5435C46.1292 65.6516 46.2485 67.8668 46.9885 69.9077C47.7285 71.9486 49.0567 73.7253 50.8059 75.0112C52.555 76.297 54.6469 77.0349 56.8156 77.1323C58.9844 77.2297 61.134 76.682 62.9914 75.5581C64.8487 74.4342 66.3312 72.7841 67.2512 70.8179L81.0187 77.2583C82.4561 74.1867 83.2848 70.8642 83.4553 67.4761C83.6287 64.0263 83.118 60.5753 81.9523 57.3237C80.7865 54.0721 78.9882 51.0836 76.6623 48.5298C74.3375 45.9772 71.5314 43.9084 68.4045 42.4448L61.9592 56.2231Z"/>
    <path class="metta-wordmark" fill="currentColor" d="M286.231 40.3591C292.201 40.388 297.364 41.4258 301.719 43.4734C306.073 45.521 309.419 48.4055 311.755 52.1257C314.12 55.8171 315.302 60.1573 315.302 65.1462V67.3533C315.302 67.7831 314.953 68.1316 314.523 68.1316H272.386C272.633 70.2041 273.239 71.9489 274.205 73.366C275.503 75.2694 277.277 76.6541 279.526 77.5193C281.805 78.3844 284.415 78.8171 287.356 78.8171C289.26 78.8171 291.033 78.6003 292.677 78.1677C294.32 77.7352 295.734 77.1299 296.916 76.3513C298.127 75.5727 299.036 74.6497 299.642 73.5828C299.721 73.4238 299.884 73.3231 300.062 73.323H314.16C314.408 73.3233 314.589 73.5591 314.523 73.7986C313.86 76.1346 312.721 78.2545 311.105 80.158C309.519 82.0325 307.529 83.6473 305.136 85.0027C302.742 86.3293 300.002 87.3388 296.916 88.031C293.83 88.7519 290.471 89.113 286.837 89.113C280.636 89.113 275.286 88.161 270.787 86.2576C266.317 84.3541 262.871 81.5998 260.448 77.9949C258.026 74.3611 256.815 69.9919 256.814 64.8875V64.8435C256.814 59.7966 258.04 55.4417 260.491 51.7791C262.971 48.1164 266.419 45.2905 270.831 43.3005C275.244 41.3107 280.377 40.3303 286.231 40.3582ZM334.99 30.3279C335.42 30.3279 335.768 30.6765 335.769 31.1062V40.7976C335.769 41.2274 336.117 41.5759 336.547 41.5759H349.05C349.48 41.5759 349.828 41.9245 349.828 42.3542V51.699C349.828 52.1288 349.48 52.4773 349.05 52.4773H336.59C336.16 52.4775 335.812 52.8259 335.812 53.2556V70.4304C335.812 73.1412 336.504 75.0586 337.889 76.1833C339.273 77.3081 341.595 77.8708 344.854 77.8708C345.805 77.8708 346.699 77.8275 347.535 77.741C348.027 77.6918 348.487 77.6384 348.914 77.5798C349.393 77.5142 349.828 77.881 349.828 78.364V87.4138C349.828 87.7974 349.549 88.1244 349.169 88.1785C348.043 88.3389 346.806 88.4791 345.459 88.5994C343.844 88.7436 342.157 88.8162 340.397 88.8162C333.216 88.8162 327.982 87.5323 324.694 84.9656C321.407 82.3988 319.763 78.2457 319.763 72.5066V31.1062C319.763 30.6765 320.111 30.3279 320.541 30.3279H334.99ZM369.521 30.3279C369.95 30.3279 370.299 30.6765 370.299 31.1062V40.7976C370.299 41.2273 370.647 41.5758 371.077 41.5759H383.58C384.01 41.5759 384.358 41.9245 384.358 42.3542V51.699C384.358 52.1288 384.01 52.4773 383.58 52.4773H371.12C370.691 52.4775 370.343 52.826 370.343 53.2556V70.4304C370.343 73.1412 371.035 75.0586 372.419 76.1833C373.803 77.3081 376.125 77.8708 379.384 77.8708C380.335 77.8708 381.229 77.8275 382.065 77.741C382.558 77.6918 383.018 77.6384 383.444 77.5798C383.923 77.5142 384.358 77.8809 384.358 78.364V87.4138C384.358 87.7974 384.079 88.1244 383.699 88.1785C382.573 88.3388 381.336 88.4791 379.989 88.5994C378.374 88.7436 376.687 88.8162 374.928 88.8162C367.747 88.8161 362.512 87.5323 359.225 84.9656C355.937 82.3988 354.293 78.2457 354.293 72.5066V31.1062C354.293 30.6765 354.642 30.3279 355.071 30.3279H369.521ZM417.464 40.1589C423.03 40.1589 427.817 40.8942 431.826 42.365C435.835 43.807 438.907 45.8977 441.041 48.6375C443.204 51.3484 444.285 54.6079 444.285 58.4148V87.0095C444.285 87.4393 443.937 87.7878 443.507 87.7878H429.015C428.585 87.7878 428.236 87.4393 428.236 87.0095V80.3845C428.236 80.2922 428.161 80.2175 428.068 80.2175C428.011 80.2176 427.958 80.2466 427.927 80.2947C426.836 81.9919 425.382 83.4521 423.563 84.6736C421.747 85.9135 419.612 86.8648 417.161 87.5281C414.739 88.1914 412.085 88.5232 409.201 88.5232C405.077 88.5232 401.487 87.9614 398.43 86.8367C395.373 85.7119 393.008 84.0679 391.335 81.905C389.662 79.742 388.826 77.1169 388.826 74.031V73.9451C388.826 71.2053 389.533 68.8252 390.946 66.8064C392.388 64.759 394.652 63.1581 397.737 62.0046C400.852 60.851 404.89 60.2167 409.851 60.1013L428.236 59.7107V58.5437C428.236 56.0926 427.27 54.1891 425.338 52.8337C423.434 51.4494 420.694 50.7576 417.118 50.7576C414.003 50.7576 411.538 51.2619 409.721 52.2712C407.904 53.2518 406.75 54.5498 406.26 56.1648C406.182 56.3973 405.965 56.5544 405.72 56.5544H391.646C391.37 56.5544 391.16 56.3067 391.205 56.0349C391.753 52.9204 393.095 50.1809 395.229 47.8162C397.392 45.4225 400.333 43.5476 404.054 42.1921C407.774 40.8367 412.244 40.159 417.464 40.1589ZM232.583 40.3582C236.793 40.3582 240.37 41.151 243.312 42.7371C246.282 44.3232 248.532 46.6016 250.061 49.572C251.589 52.5137 252.354 56.0183 252.354 60.0847V87.2087C252.354 87.6385 252.005 87.987 251.575 87.9871H237.125C236.695 87.9869 236.347 87.6384 236.347 87.2087V63.5886C236.347 61.1373 235.972 59.0607 235.223 57.3591C234.502 55.6576 233.391 54.3737 231.892 53.5085C230.421 52.6146 228.575 52.1678 226.354 52.1677C224.047 52.1677 222.072 52.658 220.428 53.6384C218.784 54.619 217.514 56.0037 216.62 57.7917C215.755 59.5798 215.322 61.6857 215.322 64.1082V87.2087C215.322 87.6384 214.975 87.9868 214.545 87.9871H200.743C200.314 87.9868 199.966 87.6384 199.966 87.2087V63.5017C199.966 61.0793 199.591 59.0318 198.841 57.3591C198.091 55.6576 196.981 54.3737 195.51 53.5085C194.039 52.6146 192.193 52.1678 189.973 52.1677C187.666 52.1677 185.690 52.658 184.046 53.6384C182.402 54.6189 181.133 56.018 180.239 57.8347C179.374 59.6228 178.941 61.7427 178.941 64.1941V87.2087C178.941 87.6385 178.593 87.987 178.163 87.9871H163.670C163.240 87.9871 162.892 87.6385 162.892 87.2087V42.2605C162.892 41.8309 163.240 41.4832 163.670 41.4832H178.163C178.593 41.4833 178.941 41.831 178.941 42.2605V50.0623C178.941 50.1498 179.012 50.2214 179.100 50.2214C179.161 50.2214 179.218 50.1853 179.244 50.1296C180.716 47.0307 182.951 44.6388 185.949 42.9539C188.977 41.2235 192.510 40.3582 196.548 40.3582C199.432 40.3582 201.999 40.7758 204.248 41.6121C206.498 42.4484 208.416 43.6748 210.002 45.2898C211.558 46.8461 212.753 48.7219 213.588 50.9167C213.617 50.9925 213.689 51.0426 213.771 51.0427C213.846 51.0427 213.915 50.9989 213.947 50.9304C215.009 48.6726 216.434 46.7631 218.221 45.2029C220.066 43.6167 222.201 42.4196 224.624 41.6121C227.075 40.7759 229.728 40.3582 232.583 40.3582ZM412.489 68.1912C409.692 68.2489 407.659 68.7107 406.390 69.5759C405.150 70.4122 404.529 71.5653 404.529 73.0359V73.0798C404.529 74.9542 405.409 76.3533 407.168 77.2761C408.927 78.1701 411.249 78.6169 414.133 78.6169C416.988 78.6169 419.469 78.2418 421.574 77.4919C423.708 76.7133 425.352 75.617 426.506 74.2039C427.659 72.762 428.236 71.0895 428.236 69.1863V67.8191L412.489 68.1912ZM286.577 50.741C283.578 50.741 281.011 51.2311 278.877 52.2117C276.743 53.1634 275.099 54.5914 273.945 56.4949C273.347 57.4928 272.909 58.6177 272.629 59.8689H299.975C299.705 58.6114 299.262 57.4717 298.646 56.4509C297.579 54.6054 296.022 53.1921 293.975 52.2117C291.927 51.2312 289.461 50.741 286.577 50.741Z"/>
  </symbol>
</svg>